<svg width="30" height="30" viewBox="0 0 30 30" fill="none" xmlns="http://www.w3.org/2000/svg">
<path d="M30 15C30 23.2843 23.2843 30 15 30C6.71573 30 0 23.2843 0 15C0 6.71573 6.71573 0 15 0C23.2843 0 30 6.71573 30 15Z" fill="#EB2626"/>
<path fill-rule="evenodd" clip-rule="evenodd" d="M22.85 12.4793C22.85 12.4793 22.7033 11.4384 22.2538 10.98C21.6833 10.3782 21.0439 10.3754 20.7509 10.3404C18.6519 10.1875 15.5033 10.1875 15.5033 10.1875H15.4967C15.4967 10.1875 12.3481 10.1875 10.2491 10.3404C9.95562 10.3754 9.31672 10.3782 8.74578 10.98C8.29625 11.4385 8.15 12.4793 8.15 12.4793C8.15 12.4793 8 13.7021 8 14.9242V16.0704C8 17.293 8.15 18.5153 8.15 18.5153C8.15 18.5153 8.29625 19.5563 8.74578 20.0146C9.31672 20.6165 10.0662 20.5976 10.4 20.6604C11.6 20.7766 15.5 20.8124 15.5 20.8124C15.5 20.8124 18.6519 20.8077 20.7509 20.6548C21.0439 20.6194 21.6833 20.6166 22.2538 20.0147C22.7033 19.5563 22.85 18.5154 22.85 18.5154C22.85 18.5154 23 17.2932 23 16.0704V14.9242C23 13.7021 22.85 12.4793 22.85 12.4793ZM13.9513 17.4593L13.9508 13.2149L18.0036 15.3445L13.9513 17.4593Z" fill="white"/>
</svg>
