<svg width="16" height="12" viewBox="0 0 16 12" fill="none" xmlns="http://www.w3.org/2000/svg">
<path d="M12.8 0.133301H3.2C1.43574 0.133301 0 1.56901 0 3.3333V8.66663C0 10.4309 1.43574 11.8666 3.2 11.8666H12.8C14.5643 11.8666 16 10.4309 16 8.66663V3.3333C16 1.56901 14.5643 0.133301 12.8 0.133301ZM15.2889 8.66663C15.2889 10.0391 14.1724 11.1555 12.8 11.1555H3.2C1.82756 11.1555 0.711111 10.0391 0.711111 8.66663V3.3333C0.711111 1.96086 1.82756 0.844412 3.2 0.844412H12.8C14.1724 0.844412 15.2889 1.96086 15.2889 3.3333V8.66663ZM5.68889 9.00828L10.8996 6.00031L5.68889 2.9916V9.00828ZM6.4 4.22326L9.47733 6.00033L6.4 7.77667V4.22326Z" fill="#99999D"/>
</svg>
